<svg width="24" height="24" viewBox="0 0 24 24" fill="none" xmlns="http://www.w3.org/2000/svg">
<path fill-rule="evenodd" clip-rule="evenodd" d="M21.1561 16.5454C21.1061 17.6424 20.9226 18.2384 20.7704 18.6343C20.5658 19.1591 20.3216 19.5344 19.9257 19.928C19.5344 20.3216 19.1591 20.5651 18.6343 20.7675C18.2384 20.9221 17.6401 21.1061 16.5432 21.1584C15.3572 21.2106 15.0059 21.2217 11.9986 21.2217C8.9941 21.2217 8.63991 21.2106 7.454 21.1584C6.35708 21.1061 5.76163 20.9221 5.36574 20.7675C4.83813 20.5651 4.46564 20.3216 4.072 19.928C3.67557 19.5344 3.43151 19.1591 3.22969 18.6343C3.07732 18.2384 2.8911 17.6424 2.84381 16.5454C2.78601 15.3595 2.77542 15.0026 2.77542 12.0014C2.77542 8.9941 2.78601 8.63991 2.84381 7.454C2.8911 6.35708 3.07732 5.76162 3.22969 5.3624C3.43151 4.83812 3.67557 4.46505 4.072 4.07141C4.46564 3.67836 4.83813 3.43426 5.36574 3.22969C5.76163 3.07457 6.35708 2.89331 7.454 2.84106C8.63991 2.78878 8.9941 2.77542 11.9986 2.77542C15.0059 2.77542 15.3572 2.78878 16.5432 2.84106C17.6401 2.89331 18.2384 3.07457 18.6343 3.22969C19.1591 3.43426 19.5344 3.67836 19.9257 4.07141C20.3216 4.46505 20.5658 4.83812 20.7704 5.3624C20.9226 5.76162 21.1061 6.35708 21.1561 7.454C21.2113 8.63991 21.2245 8.9941 21.2245 12.0014C21.2245 15.0026 21.2113 15.3595 21.1561 16.5454ZM23.1816 7.36172C23.1266 6.16301 22.9375 5.34406 22.6567 4.63076C22.371 3.89074 21.9879 3.26359 21.3608 2.63645C20.7364 2.01209 20.1092 1.62901 19.3692 1.33991C18.6531 1.06191 17.837 0.870637 16.6378 0.818387C15.4385 0.76055 15.0554 0.75 11.9986 0.75C8.9446 0.75 8.55876 0.76055 7.35951 0.818387C6.16301 0.870637 5.34739 1.06191 4.62796 1.33991C3.89074 1.62901 3.26359 2.01209 2.63924 2.63645C2.01209 3.26359 1.629 3.89074 1.34045 4.63076C1.06245 5.34406 0.873425 6.16301 0.815587 7.36172C0.763337 8.56098 0.75 8.9446 0.75 12.0014C0.75 15.0554 0.763337 15.4385 0.815587 16.6378C0.873425 17.8342 1.06245 18.6526 1.34045 19.3692C1.629 20.1065 2.01209 20.7364 2.63924 21.3608C3.26359 21.9851 3.89074 22.371 4.62796 22.6595C5.34739 22.9375 6.16301 23.1266 7.35951 23.1816C8.55876 23.2366 8.9446 23.25 11.9986 23.25C15.0554 23.25 15.4385 23.2366 16.6378 23.1816C17.837 23.1266 18.6531 22.9375 19.3692 22.6595C20.1092 22.371 20.7364 21.9851 21.3608 21.3608C21.9879 20.7364 22.371 20.1065 22.6567 19.3692C22.9375 18.6526 23.1266 17.8342 23.1816 16.6378C23.2366 15.4385 23.25 15.0554 23.25 12.0014C23.25 8.9446 23.2366 8.56098 23.1816 7.36172ZM19.3559 5.99508C19.3559 5.2473 18.7499 4.6435 18.0049 4.6435C17.2599 4.6435 16.6532 5.2473 16.6532 5.99508C16.6532 6.7401 17.2599 7.3439 18.0049 7.3439C18.7499 7.3439 19.3559 6.7401 19.3559 5.99508ZM8.24907 12.0014C8.24907 14.0712 9.92863 15.7481 11.9986 15.7481C14.0691 15.7481 15.7509 14.0712 15.7509 12.0014C15.7509 9.92812 14.0691 8.2491 11.9986 8.2491C9.92863 8.2491 8.24907 9.92812 8.24907 12.0014ZM6.22365 12.0014C6.22365 8.81061 8.80783 6.22089 11.9986 6.22089C15.1894 6.22089 17.7764 8.81061 17.7764 12.0014C17.7764 15.1894 15.1894 17.7764 11.9986 17.7764C8.80783 17.7764 6.22365 15.1894 6.22365 12.0014Z" fill="#D9D9D9"/>
</svg>
