<svg width="16" height="16" viewBox="0 0 16 16" fill="none" xmlns="http://www.w3.org/2000/svg">
<path fill-rule="evenodd" clip-rule="evenodd" d="M12.0898 6.75C12.0898 9.51142 9.85126 11.75 7.08984 11.75C4.32842 11.75 2.08984 9.51142 2.08984 6.75C2.08984 3.98857 4.32842 1.75 7.08984 1.75C9.85126 1.75 12.0898 3.98857 12.0898 6.75ZM13.3398 6.75C13.3398 10.2017 10.5416 13 7.08984 13C3.63806 13 0.839844 10.2017 0.839844 6.75C0.839844 3.29822 3.63806 0.5 7.08984 0.5C10.5416 0.5 13.3398 3.29822 13.3398 6.75ZM12.0646 12.6086L11.6372 12.1812C11.9571 11.9131 12.2529 11.6173 12.521 11.2973L12.9484 11.7247L15.4484 14.2247C15.6925 14.4688 15.6925 14.8645 15.4484 15.1086C15.2043 15.3527 14.8087 15.3527 14.5646 15.1086L12.0646 12.6086Z" fill="white"/>
</svg>
