<svg width="16" height="18" viewBox="0 0 16 18" fill="none" xmlns="http://www.w3.org/2000/svg">
<path d="M12.9693 4.13369C12.0929 3.56389 11.4634 2.6495 11.2653 1.58589C11.2219 1.35254 11.1974 1.11649 11.1974 0.875H8.40281L8.39731 12.0729C8.35119 13.3264 7.31744 14.333 6.05306 14.333C5.65969 14.333 5.29063 14.2354 4.96503 14.0644C4.21616 13.671 3.70605 12.8869 3.70605 11.986C3.70605 10.6917 4.75881 9.63625 6.05581 9.63625C6.29731 9.63625 6.53056 9.677 6.74769 9.74475V7.55513V6.89312C6.51981 6.86325 6.28906 6.84163 6.05581 6.84163C3.22038 6.84163 0.914062 9.14787 0.914062 11.9832C0.914062 13.7225 1.78233 15.2636 3.10913 16.1944C3.94483 16.7804 4.9596 17.125 6.05581 17.125C8.89119 17.125 11.1974 14.8187 11.1974 11.9832V6.30433C12.2937 7.09113 13.6368 7.55513 15.0857 7.55513V5.38451V4.76318C14.3042 4.76046 13.5771 4.52982 12.9693 4.13369Z" fill="#D9D9D9"/>
</svg>
