<svg width="26" height="21" viewBox="0 0 26 21" fill="none" xmlns="http://www.w3.org/2000/svg">
<path d="M25.5 2.40507C24.5801 2.81301 23.5916 3.08872 22.5541 3.21271C23.6131 2.57791 24.4264 1.57275 24.8094 0.3751C23.8184 0.962825 22.7206 1.38969 21.5524 1.61975C20.6166 0.622925 19.2838 0 17.8085 0C14.9759 0 12.6792 2.29645 12.6792 5.12894C12.6792 5.53093 12.7247 5.9224 12.8121 6.29778C8.5494 6.08389 4.77009 4.04194 2.24037 0.938863C1.79887 1.69639 1.54594 2.57745 1.54594 3.51741C1.54594 5.29682 2.45151 6.86675 3.82775 7.7865C2.98692 7.75988 2.19611 7.52913 1.50451 7.14501C1.50415 7.16641 1.50415 7.1879 1.50415 7.20949C1.50415 9.69462 3.27214 11.7676 5.61851 12.2388C5.18809 12.356 4.73497 12.4186 4.26715 12.4186C3.93666 12.4186 3.61532 12.3865 3.30222 12.3266C3.95486 14.3644 5.84904 15.8472 8.09345 15.8886C6.33809 17.2642 4.1265 18.0842 1.72353 18.0842C1.30956 18.0842 0.901262 18.06 0.5 18.0126C2.76984 19.4679 5.46589 20.317 8.3624 20.317C17.7965 20.317 22.9555 12.5015 22.9555 5.72369C22.9555 5.5013 22.9505 5.2801 22.9406 5.06017C23.9427 4.33702 24.8124 3.43365 25.5 2.40507Z" fill="#D9D9D9"/>
</svg>
